<?xml version="1.0" encoding="UTF-8" standalone="no"?>
<!-- Created with Inkscape (http://www.inkscape.org/) -->
<svg
   xmlns:svg="http://www.w3.org/2000/svg"
   xmlns="http://www.w3.org/2000/svg"
   version="1.0"
   width="216"
   height="216"
   id="svg1925">
  <defs
     id="defs1928" />
  <g
     style="fill:black"
     id="g1934">
    <path
       d="M 153.5,200.52489 C 137.08652,195.93139 126.63595,191.98531 112.5,185.0435 C 86.549663,172.29995 61.998653,153.47249 44.130703,132.61304 C 29.664393,115.72475 20.478691,102.0456 11.256914,83.658121 C 6.1428303,73.461048 5.6224169,71.805351 5.2147223,64.434873 C 4.7960949,56.866746 4.9820936,55.911585 8.233044,48.934873 C 15.317026,33.732272 26.387536,22.679091 40.857899,16.361088 C 49.544301,12.568459 52.063214,12.26384 54.180081,14.75 C 56.137804,17.049251 74,66.434787 74,69.548261 C 74,72.434068 72.100507,73.748525 61.64538,78.097713 C 53.60624,81.441884 50.881014,84.220217 52.639221,87.279378 C 53.11265,88.103111 73.282978,104.80223 97.462174,124.38854 C 125.70798,147.26899 142.21671,160 143.64075,160 C 146.78047,160 148.99816,157.38952 149.01101,153.67857 C 149.03111,147.8722 150.25392,142.93442 151.88703,142.06502 C 153.67517,141.11309 157.47392,140.67816 183,138.50277 C 207.36424,136.4264 209.62184,136.48578 211.40683,139.25 C 212.20594,140.4875 213.16601,144.67678 213.54032,148.55952 C 215.16243,165.38576 208.45819,181.19955 194.268,194.0186 C 182.10461,205.0067 174.08668,206.2863 153.5,200.52489 z "
       style="fill:black;fill-opacity:1"
       id="path1950" />
    <path
       d="M 153.5,200.52489 C 120.14863,191.19112 92.215853,176.4888 66.5,154.73272 C 43.977536,135.67831 25.28483,111.62866 11.256914,83.658121 C 6.1428303,73.461048 5.6224169,71.805351 5.2147223,64.434873 C 4.7960949,56.866746 4.9820936,55.911585 8.233044,48.934873 C 15.375261,33.607296 27.026987,22.135667 41.680482,16.004423 C 49.960091,12.540109 52.114363,12.323913 54.180081,14.75 C 56.137804,17.049251 74,66.434787 74,69.548261 C 74,72.434068 72.100507,73.748525 61.64538,78.097713 C 53.60624,81.441884 50.881014,84.220217 52.639221,87.279378 C 53.11265,88.103111 73.282978,104.80223 97.462174,124.38854 C 125.70798,147.26899 142.21671,160 143.64075,160 C 146.90998,160 148.99926,157.34346 149.00558,153.17857 C 149.01382,147.74414 150.82318,142.1886 152.78112,141.58598 C 155.04965,140.88778 199.7199,137 205.47372,137 C 211.50384,137 212.9827,139.33437 213.4903,149.65413 C 213.84862,156.93894 212.76218,164.46084 210.14833,172.79211 C 208.61439,177.68129 200.82,188.0997 194.268,194.0186 C 182.10461,205.0067 174.08668,206.2863 153.5,200.52489 z "
       style="fill:black;fill-opacity:1"
       id="path1948" />
    <path
       d="M 153.5,200.52489 C 137.36383,196.00899 126.83179,192.02749 112.5,185.02535 C 67.809114,163.19054 29.905112,124.3607 9.0026732,79 C 6.2367119,72.997545 5.4712655,69.960165 5.1691677,63.788206 C 4.8100853,56.452031 4.9886992,55.672718 8.8362677,47.788206 C 16.093805,32.91592 27.386445,21.988222 41.680482,16.005412 C 45.629748,14.352435 49.517395,13 50.319698,13 C 53.427066,13 55.916266,16.93069 59.818792,28 C 62.048695,34.325 66.1517,45.736852 68.93658,53.35967 C 74.202956,67.774874 74.85022,71.068527 72.75,72.764531 C 72.0625,73.319713 67.507637,75.499049 62.628083,77.607502 C 53.606359,81.505783 50.853108,84.171662 52.639221,87.279378 C 53.11265,88.103111 73.282978,104.80223 97.462174,124.38854 C 143.19359,161.43317 145.38172,162.8923 147.96482,158.06574 C 148.53417,157.0019 149.00251,154.6394 149.00558,152.81574 C 149.01417,147.70739 150.875,142.17265 152.78112,141.58598 C 155.04965,140.88778 199.7199,137 205.47372,137 C 209.03519,137 210.24317,137.46139 211.36456,139.25 C 214.64113,144.47611 214.15454,160.81284 210.3905,171.95293 C 207.03136,181.89468 193.43934,196.88249 183.5,201.60486 C 176.33605,205.0086 168.51518,204.72705 153.5,200.52489 z "
       style="fill:black;fill-opacity:1"
       id="path1946" />
    <path
       d="M 164.5,203.50211 C 163.95,203.31511 158.325,201.73079 152,199.9814 C 90.841499,183.06595 39.453849,140.63493 11.617924,84.067266 C 5.9806426,72.611285 5.4721769,71.023385 5.14585,63.855472 C 4.8092614,56.462157 4.9922601,55.665421 8.8362677,47.788206 C 15.761371,33.597152 25.759138,23.557909 39.49481,17.002477 C 47.460148,13.200972 50.985084,12.493921 53.323941,14.228558 C 55.283842,15.682139 74,65.761898 74,69.552524 C 74,72.477433 72.980354,73.198574 63.008921,77.325922 C 53.993756,81.057455 51.102987,83.736123 52.609582,86.962243 C 53.099312,88.010918 63.625,97.062729 76,107.07738 C 88.375,117.09203 102.71052,128.70902 107.85672,132.89292 C 138.41087,157.73368 141.44692,160 144.17039,160 C 147.4033,160 148.99748,157.63132 149.00558,152.81574 C 149.01416,147.71027 150.87434,142.17369 152.78112,141.57832 C 154.93228,140.90664 199.99188,137.01606 205.72695,137.00681 C 211.98059,136.99673 213.27753,139.51942 213.3295,151.79456 C 213.40231,168.98993 207.75358,181.66096 194.69725,193.58971 C 186.27819,201.28167 180.30136,203.99963 172,203.91128 C 168.425,203.87324 165.05,203.68911 164.5,203.50211 z "
       style="fill:black;fill-opacity:1"
       id="path1944" />
    <path
       d="M 159.39125,201.99936 C 137.2025,196.73912 108.87031,184.35761 89,171.23753 C 55.952752,149.4169 29.800532,120.00969 11.902632,84.544359 L 5.5,71.857314 L 5.5,63.178657 C 5.5,55.320879 5.8225459,53.846636 8.9100818,47.592376 C 12.152651,41.024074 19.039282,31.6043 23.458311,27.692802 C 27.975155,23.694723 38.836386,17.159807 44.367742,15.112149 C 50.534525,12.829263 53.422223,13.023099 54.879141,15.817725 C 56.922306,19.736874 74,67.894014 74,69.736355 C 74,72.443093 72.854585,73.242146 63.5,77.061255 C 53.839558,81.005233 51.510923,82.915226 52.339246,86.215528 C 52.746376,87.837662 66.870987,99.913826 96.014278,123.55651 C 119.70459,142.77543 140.35344,159.0375 141.9006,159.69444 C 146.58301,161.68264 148.57601,159.44329 149.33233,151.34409 C 149.75303,146.83894 150.55119,144.02556 151.73139,142.88787 C 153.1397,141.53029 157.77812,140.81592 174.5,139.38125 C 186.05,138.3903 198.86481,137.56163 202.97735,137.53976 C 210.27868,137.50094 210.48808,137.56919 211.87255,140.43909 C 214.08493,145.02521 213.6576,161.00086 211.10664,169.07218 C 207.31397,181.07232 195.34084,195.23896 184.02786,201.11188 C 178.13776,204.16961 169.81107,204.46956 159.39125,201.99936 z "
       style="fill:black;fill-opacity:1"
       id="path1942" />
    <path
       d="M 156.5,201.0153 C 94.86623,185.05979 43.844349,144.65402 13.791337,88 C 3.2179331,68.067693 2.5486406,60.439339 10.09979,45.925076 C 15.206054,36.110192 24.269158,26.027465 32.373618,21.145387 C 39.961273,16.574629 49.680317,12.763761 51.929274,13.477553 C 53.920841,14.109651 56.640213,19.772223 61.064544,32.5 C 62.594038,36.9 66.142055,46.8 68.949027,54.5 C 71.865162,62.499454 73.831185,69.415289 73.535997,70.63548 C 73.151378,72.22534 70.455876,73.865569 62.986167,77.055113 C 55.134578,80.40772 52.825898,81.845497 52.36863,83.667398 C 52.047252,84.947869 52.022893,86.617276 52.3145,87.37719 C 52.606106,88.137104 58.167137,93.062916 64.672347,98.32344 C 71.177556,103.58396 85.725,115.36689 97,124.50772 C 136.11535,156.21917 142.19019,161 143.36954,161 C 144.02154,161 145.50874,160.33196 146.67445,159.51547 C 148.3453,158.34516 148.94402,156.5362 149.50312,150.96896 C 150.07419,145.28244 150.62988,143.64785 152.35616,142.57649 C 155.4541,140.65388 207.0999,136.44791 209.80873,137.89763 C 213.49108,139.86837 214.35354,154.20025 211.534,166.56748 C 209.65454,174.81127 204.68551,183.02402 196.7934,190.93057 C 183.14724,204.6017 176.64253,206.22972 156.5,201.0153 z "
       style="fill:black;fill-opacity:1"
       id="path1940" />
    <path
       d="M 163,202.43702 C 116.45799,192.38411 71.809186,164.97022 39.321962,126.5 C 24.90691,109.43021 6.384578,76.431647 5.3207864,65.925023 C 4.207624,54.930783 10.537732,41.510992 22.5,29.505192 C 30.788536,21.186493 42.363289,14.728132 49.23594,14.587348 C 54.397528,14.481614 54.375323,14.444199 62.546368,37.015989 C 72.23463,63.778958 74.023157,69.351679 73.476782,71.073153 C 73.167306,72.048226 68.88596,74.419868 63.222734,76.75336 C 55.343327,80.000014 53.317691,81.266316 52.538401,83.432541 C 51.903131,85.198424 51.929089,86.681514 52.61489,87.802769 C 53.709169,89.591868 132.82966,154.36197 139.22318,158.70258 C 145.96511,163.27973 149.97765,159.64336 149.99442,148.94113 C 150.0048,142.31681 150.96311,141.86448 168.08979,140.39998 C 176.56541,139.67524 189.06465,138.5659 195.86589,137.93479 C 211.58101,136.47654 211.96165,136.72948 212.71458,149.13102 C 213.78065,166.69038 209.38334,177.79319 196.09142,191.10296 C 189.22817,197.97542 186.33584,200.13779 181.71249,201.85296 C 175.09397,204.30828 172.09654,204.40184 163,202.43702 z "
       style="fill:black;fill-opacity:1"
       id="path1938" />
    <path
       d="M 160.27206,201.50437 C 130.48288,194.5771 101.25594,180.5893 74.464072,160.43731 C 58.290691,148.27221 36.258198,124.05357 24.106197,105.08273 C 17.875417,95.355684 8.832708,78.203485 7.0657431,72.760423 C 3.3577197,61.338009 6.1975749,50.473109 16.719131,35.82787 C 25.516082,23.583157 49.729733,10.006056 53.603027,15.146298 C 54.792729,16.725149 57.351699,23.343998 67.023971,49.85995 C 75.107089,72.019332 75.095413,72.4255 66.287841,75.468105 C 56.51407,78.844487 52.521866,81.325497 52.186038,84.231864 C 51.743535,88.061445 52.453228,88.963622 62,96.707576 C 93.297959,122.09521 129.49577,151.42212 134.9499,155.81047 C 138.49735,158.66471 142.34884,161 143.50878,161 C 148.04557,161 149.75897,158.02568 149.92569,149.86078 C 150.06104,143.23203 152.2209,141.85531 164.06644,140.84727 C 211.96073,136.77152 208.35528,136.92898 210.26535,138.82962 C 213.09609,141.64639 213.68124,154.62319 211.44435,164.97617 C 209.25341,175.11646 203.19932,184.93698 194.01572,193.24765 C 182.66432,203.52008 175.9769,205.15643 160.27206,201.50437 z "
       style="fill:black;fill-opacity:1"
       id="path1936" />
  </g>
</svg>
